<svg version="1.2" xmlns="http://www.w3.org/2000/svg" viewBox="0 0 1541 1359" width="1541" height="1359">
	<title>travelers-logo-svg</title>
	<style>
		.s0 { fill: #f50002 } 
	</style>
	<g id="Layer">
		<g id="Layer">
			<path id="Layer" class="s0" d="m7.5 510.9h-2.6c-2.6 0-4.8-2.1-4.8-4.8q-0.2-1.1 0-2.2c186.4-425.6 682.1-619.5 1107.2-432.9 193.4 84.8 347.7 239.4 432.5 432.9 1 2.5-0.2 5.3-2.6 6.3q-0.9 0.4-1.9 0.4h-2.2c-72.1-39.2-153.1-58.8-235.1-56.9-92.6-3.2-183.8 22.6-261 73.9-0.9 0.3-2 0.3-3 0h-2.9c-159.9-99.1-362-99.1-521.9 0-1 0.3-2 0.3-3 0h-2.6c-77.2-51.2-168.4-77.1-260.9-73.9-81.9-1.7-162.8 18.1-234.8 57.2zm806.9 691.5c0.5 67.7-43 127.9-107.5 148.6-81.3 26.1-168.4-18.8-194.4-100.2-4.3-20 6.3-40.1 25.2-47.8 21.5-8.8 46.1 1.5 54.8 23 10.1 28.4 36.8 47.3 66.8 47.3 39.2 0 70.9-31.7 70.9-70.9v-688.5c0-2.1 1.6-3.9 3.7-4.1 11.7-0.6 23.4-0.6 35.1 0q20.7 0.1 41.3 2.6c2.1 0.2 3.7 2 3.7 4.1z"/>
		</g>
	</g>
</svg>